<svg width="24" height="24" viewBox="0 0 24 24" fill="none" xmlns="http://www.w3.org/2000/svg">
<path d="M11.9996 20.4001C13.3251 20.4001 14.3996 19.3256 14.3996 18.0001C14.3996 16.6746 13.3251 15.6001 11.9996 15.6001C10.6741 15.6001 9.59961 16.6746 9.59961 18.0001C9.59961 19.3256 10.6741 20.4001 11.9996 20.4001Z" fill="black"/>
<path d="M11.9996 14.4001C13.3251 14.4001 14.3996 13.3256 14.3996 12.0001C14.3996 10.6746 13.3251 9.6001 11.9996 9.6001C10.6741 9.6001 9.59961 10.6746 9.59961 12.0001C9.59961 13.3256 10.6741 14.4001 11.9996 14.4001Z" fill="black"/>
<path d="M11.9996 8.4001C13.3251 8.4001 14.3996 7.32558 14.3996 6.0001C14.3996 4.67461 13.3251 3.6001 11.9996 3.6001C10.6741 3.6001 9.59961 4.67461 9.59961 6.0001C9.59961 7.32558 10.6741 8.4001 11.9996 8.4001Z" fill="black"/>
</svg>
