<svg width="30" height="27" viewBox="0 0 30 27" fill="none" xmlns="http://www.w3.org/2000/svg">
<path d="M12.12 11.961C12.195 11.5155 12.36 11.124 12.57 10.7865C12.78 10.449 13.08 10.1655 13.455 9.9495C13.815 9.747 14.265 9.6525 14.82 9.639C15.165 9.6525 15.48 9.7065 15.765 9.8145C16.065 9.936 16.335 10.098 16.545 10.3005C16.755 10.503 16.92 10.746 17.055 11.016C17.19 11.286 17.25 11.583 17.265 11.88H19.95C19.92 11.2455 19.785 10.665 19.53 10.1385C19.275 9.612 18.93 9.153 18.48 8.775C18.03 8.397 17.49 8.1 16.86 7.884C16.23 7.668 15.54 7.5735 14.775 7.5735C13.8 7.5735 12.945 7.722 12.225 8.0325C11.505 8.343 10.905 8.748 10.425 9.2745C9.945 9.801 9.585 10.4085 9.36 11.1105C9.135 11.8125 9 12.5415 9 13.3245V13.689C9 14.472 9.12 15.201 9.345 15.903C9.57 16.605 9.93 17.2125 10.41 17.7255C10.89 18.2385 11.49 18.657 12.21 18.954C12.93 19.251 13.785 19.413 14.76 19.413C15.465 19.413 16.125 19.305 16.74 19.1025C17.355 18.9 17.895 18.6165 18.36 18.252C18.825 17.8875 19.2 17.469 19.47 16.983C19.74 16.497 19.905 15.984 19.92 15.4305H17.235C17.22 15.714 17.145 15.9705 17.01 16.2135C16.875 16.4565 16.695 16.659 16.47 16.8345C16.245 17.01 15.99 17.145 15.69 17.2395C15.405 17.334 15.105 17.361 14.79 17.3745C14.25 17.361 13.8 17.2665 13.455 17.064C13.08 16.848 12.78 16.5645 12.57 16.227C12.36 15.8895 12.195 15.4845 12.12 15.039C12.045 14.5935 12 14.1345 12 13.689V13.3245C12 12.852 12.045 12.4065 12.12 11.961ZM15 0C6.72 0 0 6.048 0 13.5C0 20.952 6.72 27 15 27C23.28 27 30 20.952 30 13.5C30 6.048 23.28 0 15 0ZM15 24.3C8.385 24.3 3 19.4535 3 13.5C3 7.5465 8.385 2.7 15 2.7C21.615 2.7 27 7.5465 27 13.5C27 19.4535 21.615 24.3 15 24.3Z" fill="#929195"/>
</svg>
