<svg width="59" height="59" viewBox="0 0 59 59" fill="none" xmlns="http://www.w3.org/2000/svg">
<path d="M44.082 29.527V3.27702C44.082 2.50347 43.7747 1.7616 43.2278 1.21462C42.6808 0.667642 41.9389 0.360352 41.1654 0.360352H3.2487C2.47515 0.360352 1.73328 0.667642 1.1863 1.21462C0.639322 1.7616 0.332031 2.50347 0.332031 3.27702V44.1104L11.9987 32.4437H41.1654C41.9389 32.4437 42.6808 32.1364 43.2278 31.5894C43.7747 31.0424 44.082 30.3006 44.082 29.527ZM55.7487 12.027H49.9154V38.277H11.9987V44.1104C11.9987 44.8839 12.306 45.6258 12.853 46.1727C13.4 46.7197 14.1418 47.027 14.9154 47.027H46.9987L58.6654 58.6937V14.9437C58.6654 14.1701 58.3581 13.4283 57.8111 12.8813C57.2641 12.3343 56.5223 12.027 55.7487 12.027Z" fill="white"/>
</svg>
