<svg width="81" height="59" viewBox="0 0 81 59" fill="none" xmlns="http://www.w3.org/2000/svg">
<path d="M79 52L65.5385 38.5385M50.1538 44.3077C55.7642 44.3077 61.1448 42.079 65.1119 38.1119C69.079 34.1448 71.3077 28.7642 71.3077 23.1538C71.3077 17.5435 69.079 12.1629 65.1119 8.19582C61.1448 4.2287 55.7642 2 50.1538 2C44.5435 2 39.1629 4.2287 35.1958 8.19582C31.2287 12.1629 29 17.5435 29 23.1538C29 28.7642 31.2287 34.1448 35.1958 38.1119C39.1629 42.079 44.5435 44.3077 50.1538 44.3077Z" stroke="white" stroke-width="4" stroke-linecap="round" stroke-linejoin="round"/>
<path d="M33.2762 2.80141C30.6407 1.73286 27.6926 1.73286 25.0571 2.80141L18.6696 5.39141L46.6462 16.2706L56.4871 12.4702C56.0824 12.1374 55.6302 11.867 55.1454 11.6681L33.2762 2.80141ZM58.3333 16.4456L31.3542 26.8697V58.7285C32.0075 58.5963 32.6482 58.4028 33.2762 58.1481L55.1454 49.2814C56.0874 48.8999 56.894 48.2458 57.462 47.4029C58.0299 46.5601 58.3333 45.5669 58.3333 44.5506V16.4456ZM26.9792 58.7285V26.8697L0 16.4456V44.5535C0.000574637 45.5693 0.30425 46.5619 0.872162 47.4041C1.44007 48.2464 2.24639 48.9 3.18792 49.2814L25.0571 58.1481C25.6851 58.4009 26.3258 58.5924 26.9792 58.7285ZM1.84625 12.4702L29.1667 23.0256L40.5912 18.6097L12.7575 7.78891L3.18792 11.6681C2.69014 11.8703 2.24292 12.1377 1.84625 12.4702Z" fill="white" fill-opacity="0.7"/>
</svg>
