<svg width="1460" height="1173" viewBox="0 0 1460 1173" fill="none" xmlns="http://www.w3.org/2000/svg">
<rect width="1460" height="1173" fill="#FFF4DE"/>
<path d="M82.4142 1096.55L113.309 1085.3L124.548 1054.41C124.806 1053.71 125.275 1053.1 125.892 1052.66C126.508 1052.23 127.243 1052 127.996 1052C128.749 1052 129.484 1052.23 130.101 1052.66C130.718 1053.1 131.187 1053.71 131.445 1054.41L142.691 1085.31L173.586 1096.55C174.293 1096.81 174.905 1097.27 175.336 1097.89C175.768 1098.51 176 1099.24 176 1100C176 1100.75 175.768 1101.48 175.336 1102.1C174.905 1102.72 174.293 1103.19 173.586 1103.44L142.683 1114.69L131.445 1145.59C131.187 1146.29 130.718 1146.9 130.101 1147.34C129.484 1147.77 128.749 1148 127.996 1148C127.243 1148 126.508 1147.77 125.892 1147.34C125.275 1146.9 124.806 1146.29 124.548 1145.59L113.302 1114.68L82.4142 1103.44C81.7066 1103.19 81.0954 1102.72 80.6635 1102.1C80.2317 1101.48 80 1100.75 80 1100C80 1099.24 80.2317 1098.51 80.6635 1097.89C81.0954 1097.27 81.7066 1096.81 82.4142 1096.55Z" stroke="#D29760" stroke-opacity="0.8" stroke-width="10" stroke-linecap="round" stroke-linejoin="round"/>
<path d="M1289.41 240.548L1320.31 229.302L1331.55 198.414C1331.81 197.707 1332.27 197.095 1332.89 196.664C1333.51 196.232 1334.24 196 1335 196C1335.75 196 1336.48 196.232 1337.1 196.664C1337.72 197.095 1338.19 197.707 1338.44 198.414L1349.69 229.309L1380.59 240.548C1381.29 240.806 1381.9 241.275 1382.34 241.892C1382.77 242.508 1383 243.243 1383 243.996C1383 244.749 1382.77 245.484 1382.34 246.101C1381.9 246.718 1381.29 247.187 1380.59 247.445L1349.68 258.691L1338.44 289.586C1338.19 290.293 1337.72 290.905 1337.1 291.336C1336.48 291.768 1335.75 292 1335 292C1334.24 292 1333.51 291.768 1332.89 291.336C1332.27 290.905 1331.81 290.293 1331.55 289.586L1320.3 258.683L1289.41 247.445C1288.71 247.187 1288.1 246.718 1287.66 246.101C1287.23 245.484 1287 244.749 1287 243.996C1287 243.243 1287.23 242.508 1287.66 241.892C1288.1 241.275 1288.71 240.806 1289.41 240.548Z" stroke="#D29760" stroke-opacity="0.8" stroke-width="10" stroke-linecap="round" stroke-linejoin="round"/>
</svg>
