<svg width="1460" height="1148" viewBox="0 0 1460 1148" fill="none" xmlns="http://www.w3.org/2000/svg">
<g clip-path="url(#clip0_211_430)">
<rect width="1460" height="1148" fill="#FFF4DE"/>
<path d="M1322 234.949C1322.02 236.005 1321.68 237.04 1321.02 237.895C1320.37 238.768 1319.43 239.413 1318.35 239.731L1309.57 242.485C1306.87 243.325 1304.41 244.747 1302.39 246.639C1300.36 248.532 1298.85 250.85 1297.97 253.402L1294.89 261.614C1294.57 262.6 1293.92 263.463 1293.04 264.078C1292.1 264.683 1290.99 265.004 1289.86 264.996C1288.72 265.041 1287.6 264.729 1286.67 264.108C1285.74 263.487 1285.05 262.593 1284.72 261.566L1281.8 253.305C1280.92 250.753 1279.4 248.435 1277.38 246.542C1275.34 244.662 1272.89 243.227 1270.19 242.34L1261.41 239.634C1260.37 239.289 1259.47 238.668 1258.79 237.847C1258.11 236.978 1257.74 235.931 1257.72 234.852C1257.67 233.78 1258 232.724 1258.66 231.849C1259.32 230.974 1260.27 230.331 1261.36 230.021L1270.19 227.268C1272.93 226.435 1275.42 225.002 1277.46 223.088C1279.49 221.173 1281.01 218.831 1281.9 216.254L1284.83 208.09C1285.12 207.085 1285.76 206.199 1286.64 205.563C1287.52 204.928 1288.59 204.577 1289.7 204.564C1290.81 204.564 1291.89 204.849 1292.84 205.385C1293.77 205.989 1294.49 206.848 1294.89 207.848L1297.87 216.254C1298.75 218.831 1300.27 221.173 1302.31 223.088C1304.35 225.002 1306.83 226.435 1309.57 227.268L1318.3 230.166C1319.36 230.494 1320.28 231.138 1320.92 232.002C1321.62 232.845 1322 233.881 1322 234.949ZM1270.66 204.225C1270.65 205.172 1270.35 206.096 1269.79 206.882C1269.18 207.66 1268.34 208.249 1267.37 208.573L1260.9 210.602C1259.09 211.191 1257.45 212.148 1256.08 213.404C1254.74 214.687 1253.72 216.24 1253.1 217.945L1250.89 223.935C1250.58 224.861 1249.95 225.661 1249.1 226.205C1248.25 226.76 1247.25 227.063 1246.22 227.075C1245.17 227.058 1244.15 226.738 1243.29 226.157C1242.49 225.579 1241.88 224.789 1241.55 223.886L1239.44 217.848C1238.82 216.157 1237.81 214.621 1236.46 213.355C1235.15 212.061 1233.5 211.097 1231.69 210.554L1225.27 208.525C1224.28 208.23 1223.41 207.636 1222.81 206.834C1222.4 206.232 1222.14 205.552 1222.04 204.843C1221.95 204.134 1222.02 203.414 1222.25 202.735C1222.49 202.056 1222.88 201.434 1223.4 200.915C1223.93 200.396 1224.56 199.992 1225.27 199.733L1231.69 197.752C1233.51 197.156 1235.15 196.181 1236.52 194.902C1237.88 193.622 1238.91 192.07 1239.55 190.361L1241.65 184.419C1241.95 183.529 1242.52 182.74 1243.29 182.149C1244.11 181.569 1245.09 181.233 1246.12 181.183C1247.15 181.157 1248.17 181.426 1249.04 181.956C1249.9 182.5 1250.56 183.274 1250.94 184.178L1253.1 190.361C1253.73 192.07 1254.77 193.622 1256.13 194.902C1257.49 196.181 1259.14 197.156 1260.96 197.752L1267.37 199.829C1268.33 200.14 1269.16 200.733 1269.74 201.52C1270.34 202.306 1270.67 203.254 1270.66 204.225ZM1300.38 178.333C1300.34 179.214 1300.03 180.066 1299.51 180.796C1298.98 181.485 1298.22 181.994 1297.35 182.246L1294.17 183.26C1293.55 183.461 1292.99 183.791 1292.53 184.227C1292.06 184.662 1291.71 185.19 1291.5 185.772L1290.37 188.815C1290.06 189.557 1289.55 190.207 1288.88 190.699C1288.12 191.27 1287.18 191.577 1286.21 191.569C1285.32 191.521 1284.46 191.272 1283.7 190.844C1282.93 190.308 1282.36 189.567 1282.05 188.719L1280.97 185.724C1280.78 185.132 1280.43 184.598 1279.95 184.178C1279.5 183.731 1278.93 183.399 1278.3 183.212L1275.12 182.246C1274.27 181.935 1273.53 181.418 1272.96 180.748C1272.43 180.027 1272.14 179.166 1272.14 178.285C1272.17 177.401 1272.48 176.545 1273.02 175.821C1273.57 175.146 1274.32 174.641 1275.17 174.372L1278.3 173.405C1278.94 173.201 1279.51 172.872 1280 172.439C1280.46 171.981 1280.8 171.438 1281.03 170.845L1282.1 167.85C1282.41 167.101 1282.9 166.44 1283.54 165.918C1284.28 165.406 1285.15 165.09 1286.06 165C1287.03 164.995 1287.97 165.264 1288.78 165.773C1289.5 166.285 1290.07 166.969 1290.42 167.754L1291.5 170.845C1291.72 171.438 1292.07 171.98 1292.53 172.439C1293 172.857 1293.56 173.184 1294.17 173.405L1297.4 174.42C1298.23 174.724 1298.95 175.224 1299.51 175.869C1300.07 176.583 1300.38 177.445 1300.38 178.333Z" fill="#D29760"/>
<path d="M179.999 1093.95C180.025 1095 179.682 1096.04 179.023 1096.9C178.373 1097.77 177.434 1098.41 176.353 1098.73L167.573 1101.48C164.867 1102.32 162.405 1103.75 160.385 1105.64C158.364 1107.53 156.85 1109.85 155.97 1112.4L152.889 1120.61C152.568 1121.6 151.92 1122.46 151.041 1123.08C150.104 1123.68 148.993 1124 147.857 1124C146.718 1124.04 145.595 1123.73 144.666 1123.11C143.736 1122.49 143.052 1121.59 142.723 1120.57L139.796 1112.31C138.916 1109.75 137.402 1107.44 135.381 1105.54C133.341 1103.66 130.887 1102.23 128.192 1101.34L119.413 1098.63C118.375 1098.29 117.465 1097.67 116.794 1096.85C116.114 1095.98 115.737 1094.93 115.716 1093.85C115.667 1092.78 115.999 1091.72 116.659 1090.85C117.319 1089.97 118.27 1089.33 119.361 1089.02L128.192 1086.27C130.931 1085.44 133.421 1084 135.456 1082.09C137.491 1080.17 139.014 1077.83 139.899 1075.25L142.825 1067.09C143.125 1066.09 143.762 1065.2 144.641 1064.56C145.52 1063.93 146.594 1063.58 147.703 1063.56C148.807 1063.56 149.89 1063.85 150.835 1064.38C151.77 1064.99 152.488 1065.85 152.889 1066.85L155.867 1075.25C156.752 1077.83 158.275 1080.17 160.31 1082.09C162.345 1084 164.835 1085.44 167.573 1086.27L176.302 1089.17C177.364 1089.49 178.283 1090.14 178.92 1091C179.616 1091.85 179.995 1092.88 179.999 1093.95ZM128.66 1063.23C128.652 1064.17 128.348 1065.1 127.787 1065.88C127.18 1066.66 126.339 1067.25 125.374 1067.57L118.904 1069.6C117.092 1070.19 115.449 1071.15 114.078 1072.4C112.735 1073.69 111.717 1075.24 111.1 1076.94L108.892 1082.93C108.583 1083.86 107.949 1084.66 107.095 1085.21C106.251 1085.76 105.249 1086.06 104.22 1086.07C103.167 1086.06 102.146 1085.74 101.293 1085.16C100.486 1084.58 99.8782 1083.79 99.5475 1082.89L97.4424 1076.85C96.8247 1075.16 95.8063 1073.62 94.4644 1072.36C93.1467 1071.06 91.505 1070.1 89.6894 1069.55L83.2714 1067.52C82.2755 1067.23 81.4098 1066.64 80.8069 1065.83C80.3982 1065.23 80.1366 1064.55 80.0409 1063.84C79.9452 1063.13 80.0179 1062.41 80.2536 1061.73C80.4893 1061.06 80.8823 1060.43 81.4041 1059.91C81.926 1059.4 82.5637 1058.99 83.2714 1058.73L89.6894 1056.75C91.5054 1056.16 93.155 1055.18 94.5151 1053.9C95.8753 1052.62 96.911 1051.07 97.5451 1049.36L99.6502 1043.42C99.9528 1042.53 100.524 1041.74 101.293 1041.15C102.111 1040.57 103.094 1040.23 104.117 1040.18C105.153 1040.16 106.173 1040.43 107.044 1040.96C107.9 1041.5 108.562 1042.27 108.943 1043.18L111.1 1049.36C111.734 1051.07 112.77 1052.62 114.13 1053.9C115.49 1055.18 117.14 1056.16 118.956 1056.75L125.374 1058.83C126.333 1059.14 127.162 1059.73 127.735 1060.52C128.343 1061.31 128.667 1062.25 128.66 1063.23ZM158.383 1037.33C158.336 1038.21 158.034 1039.07 157.51 1039.8C156.976 1040.49 156.219 1040.99 155.353 1041.25L152.17 1042.26C151.552 1042.46 150.99 1042.79 150.527 1043.23C150.065 1043.66 149.714 1044.19 149.5 1044.77L148.371 1047.82C148.061 1048.56 147.547 1049.21 146.882 1049.7C146.125 1050.27 145.182 1050.58 144.212 1050.57C143.323 1050.52 142.461 1050.27 141.696 1049.84C140.933 1049.31 140.36 1048.57 140.053 1047.72L138.975 1044.72C138.785 1044.13 138.43 1043.6 137.948 1043.18C137.495 1042.73 136.93 1042.4 136.305 1042.21L133.121 1041.25C132.274 1040.93 131.53 1040.42 130.965 1039.75C130.426 1039.03 130.139 1038.17 130.143 1037.28C130.173 1036.4 130.477 1035.54 131.016 1034.82C131.565 1034.15 132.316 1033.64 133.173 1033.37L136.305 1032.41C136.936 1032.2 137.514 1031.87 137.999 1031.44C138.455 1030.98 138.805 1030.44 139.026 1029.85L140.104 1026.85C140.412 1026.1 140.9 1025.44 141.542 1024.92C142.279 1024.41 143.147 1024.09 144.058 1024C145.027 1023.99 145.975 1024.26 146.779 1024.77C147.503 1025.29 148.07 1025.97 148.422 1026.75L149.5 1029.85C149.722 1030.44 150.072 1030.98 150.527 1031.44C151.005 1031.86 151.562 1032.18 152.17 1032.41L155.405 1033.42C156.227 1033.72 156.952 1034.22 157.51 1034.87C158.07 1035.58 158.376 1036.45 158.383 1037.33Z" fill="#D29760"/>
</g>
<defs>
<clipPath id="clip0_211_430">
<rect width="1460" height="1148" fill="white"/>
</clipPath>
</defs>
</svg>
