<svg width="71" height="70" viewBox="0 0 71 70" fill="none" xmlns="http://www.w3.org/2000/svg">
<path d="M16.103 0L7.3435 2.17615L0.5 18.0649L5.76265 21.5555L10.1037 12.9232L12.799 13.6937L10.4167 37.2949H33.7927L35.2471 23.4738L35.3893 22.2002H36.1007L35.2471 13.6937L37.9503 12.9232L42.2818 21.5555L47.5461 18.0649L40.701 2.17615L31.9431 0C31.0736 0.608504 30.0145 0.976437 28.8604 1.25003C27.3744 1.59752 25.6987 1.75947 24.023 1.75947C22.3473 1.75947 20.6716 1.59752 19.1856 1.25003C18.0316 0.976437 16.9725 0.610077 16.103 0ZM37.9503 25.0304L37.7132 27.2317H65.9788L65.7416 25.0304H37.9503ZM37.4128 30.062L33.192 70H43.1039L50.4548 35.8955H53.2371L60.5881 70H70.5L66.2791 30.062H37.4128Z" fill="white"/>
</svg>
