<svg width="24" height="20" viewBox="0 0 24 20" fill="none" xmlns="http://www.w3.org/2000/svg">
<path d="M9.6 14.2857L15.828 10L9.6 5.71429V14.2857ZM23.472 3.1C23.628 3.77143 23.736 4.67143 23.808 5.81429C23.892 6.95714 23.928 7.94286 23.928 8.8L24 10C24 13.1286 23.808 15.4286 23.472 16.9C23.172 18.1857 22.476 19.0143 21.396 19.3714C20.832 19.5571 19.8 19.6857 18.216 19.7714C16.656 19.8714 15.228 19.9143 13.908 19.9143L12 20C6.972 20 3.84 19.7714 2.604 19.3714C1.524 19.0143 0.828 18.1857 0.528 16.9C0.372 16.2286 0.264 15.3286 0.192 14.1857C0.108 13.0429 0.0719999 12.0571 0.0719999 11.2L0 10C0 6.87143 0.192 4.57143 0.528 3.1C0.828 1.81429 1.524 0.985714 2.604 0.628572C3.168 0.442857 4.2 0.314286 5.784 0.228571C7.344 0.128571 8.772 0.0857142 10.092 0.0857142L12 0C17.028 0 20.16 0.228572 21.396 0.628572C22.476 0.985714 23.172 1.81429 23.472 3.1Z" fill="#929195"/>
</svg>
