<svg width="15" height="15" viewBox="0 0 15 15" fill="none" xmlns="http://www.w3.org/2000/svg">
<path d="M5.615 0.888379C4.35861 0.888379 2.4324 1.57725 3.10223 5.84322C3.11249 5.90772 3.12591 5.97747 3.13973 6.0521C3.26209 6.69372 3.45077 7.68708 2.25004 8.50608C3.06671 9.14283 4.22994 9.7792 5.64342 10.0548C5.58756 10.3594 5.5175 10.6614 5.43343 10.9601C5.31856 11.3606 5.07779 11.6444 4.64755 11.7656C4.26862 11.8721 3.87153 11.9583 3.46498 12.0468C3.36038 12.0693 3.25499 12.0922 3.1492 12.1158C2.64199 12.2279 2.12491 12.3521 1.66665 12.5276C1.2072 12.7038 0.780113 12.9412 0.471445 13.2952C0.157251 13.6563 -0.0108985 14.1115 0.000548272 14.6808C0.00449544 14.8578 0.163961 14.9995 0.35974 14.9995H14.6398C14.8356 14.9995 14.995 14.8578 14.999 14.6808C15.0104 14.1115 14.8427 13.6563 14.5281 13.2952C14.2198 12.9412 13.7923 12.7034 13.3333 12.5276C12.8746 12.3517 12.3575 12.2276 11.8499 12.1154L11.535 12.0468C11.128 11.9583 10.7309 11.8721 10.352 11.7656C9.92175 11.6444 9.68097 11.3606 9.56611 10.9601C9.4656 10.6045 9.38575 10.244 9.32691 9.88007C10.4076 9.57107 11.5563 9.0157 12.7495 8.12883L12.744 8.12358C12.1839 7.61434 11.1339 6.65959 11.0593 4.39311C11.0593 1.27238 8.96496 -1.47036 5.615 0.888379Z" fill="#54361E"/>
</svg>
