<svg width="16" height="17" viewBox="0 0 16 17" fill="none" xmlns="http://www.w3.org/2000/svg">
<path d="M13.0576 14.875C12.9916 14.8751 12.9263 14.8613 12.8654 14.8344C12.8045 14.8075 12.7493 14.768 12.7029 14.7183L1.27037 2.49886C1.17688 2.39891 1.12459 2.2636 1.125 2.12269C1.12541 1.98178 1.17849 1.84681 1.27256 1.74748C1.36663 1.64814 1.49398 1.59258 1.62661 1.59302C1.75923 1.59346 1.88626 1.64985 1.97975 1.7498L13.4119 13.9685C13.4818 14.0429 13.5293 14.1376 13.5485 14.2407C13.5676 14.3437 13.5576 14.4505 13.5197 14.5475C13.4818 14.6446 13.4176 14.7274 13.3354 14.7857C13.2531 14.844 13.1564 14.8751 13.0576 14.875ZM11.4038 2.65624C9.901 2.65624 8.90381 3.6374 8.37506 4.3496C7.84756 3.6364 6.84912 2.65624 5.34631 2.65624C5.01818 2.656 4.69179 2.7069 4.37756 2.80732L5.25006 3.71874C5.94568 3.71874 6.68162 4.01757 7.24818 4.60427C7.51696 4.88243 7.74595 5.20091 7.92787 5.54957C7.96947 5.63762 8.03329 5.71165 8.1122 5.76338C8.19112 5.81512 8.28202 5.84251 8.37475 5.84251C8.46747 5.84251 8.55838 5.81512 8.63729 5.76338C8.71621 5.71165 8.78003 5.63762 8.82162 5.54957C9.00364 5.2004 9.23284 4.88147 9.50193 4.60294C10.0685 4.01757 10.7082 3.71874 11.4038 3.71874C12.7522 3.71874 13.8607 4.92501 13.8747 6.4082C13.8916 8.19087 13.1638 9.71357 12.0816 11.0407L12.7888 11.7967C12.8826 11.6825 12.9669 11.5763 13.0432 11.478C14.2932 9.85933 14.8916 8.19751 14.8747 6.39791C14.8554 4.33367 13.2982 2.65624 11.4038 2.65624ZM8.37506 14.3437C5.63693 12.3685 2.84381 9.88124 2.87506 6.4082C2.87705 6.20254 2.90053 5.99775 2.94506 5.79759L2.15631 4.95191C1.97522 5.40928 1.87969 5.89974 1.87506 6.39591C1.85818 8.19619 2.45725 9.858 3.70662 11.476C4.29318 12.2353 5.35662 13.4499 7.81256 15.2213C7.97818 15.3419 8.17427 15.4065 8.37506 15.4065C8.57585 15.4065 8.77194 15.3419 8.93756 15.2213C9.5735 14.7628 10.1157 14.3414 10.5807 13.9559L9.87256 13.1986C9.38287 13.6 8.87787 13.9802 8.37506 14.3437Z" fill="black"/>
</svg>
